<?xml version="1.0" encoding="UTF-8"?>
<svg version="1.1" xmlns="http://www.w3.org/2000/svg" width="289" height="185">
<path d="M0 0 C9.57 0 19.14 0 29 0 C32.94908302 13.70012434 36.76275978 27.42097154 40.3984375 41.20703125 C40.88292763 43.03794535 41.36760151 44.86881084 41.85244751 46.69963074 C43.10689806 51.43847598 44.35891072 56.17796173 45.61035156 60.91760254 C46.89626458 65.78596576 48.18457216 70.65369523 49.47265625 75.52148438 C51.98406608 85.01371699 54.49289142 94.50663049 57 104 C57.01030746 102.72657745 57.02061493 101.45315491 57.03123474 100.1411438 C57.12882853 88.16277513 57.23154908 76.18446005 57.33933926 64.20617867 C57.39459416 58.04746444 57.44801826 51.8887455 57.49731445 45.72998047 C57.54492013 39.79071685 57.59726153 33.85151241 57.65294075 27.91231918 C57.67338154 25.64204245 57.69209171 23.37174948 57.70907402 21.10144424 C57.73307989 17.93101355 57.76313965 14.76069546 57.79467773 11.59033203 C57.8004332 10.64374725 57.80618866 9.69716248 57.81211853 8.72189331 C57.82190735 7.86090027 57.83169617 6.99990723 57.84178162 6.11282349 C57.84823417 5.362484 57.85468672 4.61214451 57.8613348 3.83906746 C58 2 58 2 59 0 C67.47659804 -0.09340721 75.95297475 -0.16411832 84.42996311 -0.20724869 C88.36780263 -0.22796757 92.30528555 -0.25599054 96.24291992 -0.30175781 C100.0555303 -0.34578565 103.86780158 -0.3692545 107.6806469 -0.37950897 C109.12245955 -0.38679985 110.5642574 -0.40103093 112.00592232 -0.42292023 C128.65043867 -0.66517995 143.96090522 2.77817288 156.8125 14.0625 C168.24475437 26.36551576 168.67289103 41.35993212 168.17919922 57.18017578 C167.44315694 68.76231247 161.46335911 77.9357226 153.25 85.75 C148.57070116 89.81060736 143.68819377 92.59159455 138 95 C139.11774622 96.3209728 140.23549775 97.64194111 141.35327148 98.96289062 C142.33594346 100.12427507 143.31852636 101.28573487 144.30102539 102.44726562 C146.87831574 105.49393683 149.4569889 108.53941236 152.0390625 111.58203125 C152.52528076 112.15542236 153.01149902 112.72881348 153.51245117 113.31958008 C154.43914246 114.41233597 155.36636014 115.50464576 156.29418945 116.59643555 C157.53466096 118.05989741 158.76751432 119.52980639 160 121 C160.76441406 121.886875 161.52882813 122.77375 162.31640625 123.6875 C164 126 164 126 164 129 C162.71416016 129.32871094 162.71416016 129.32871094 161.40234375 129.6640625 C153.18520029 131.94299969 146.9624203 133.90908468 142.54296875 141.50390625 C141.67227638 143.22772658 140.83559113 144.96938627 140.04296875 146.73046875 C139 149 139 149 137 152 C131.49029868 146.1661986 126.6299497 139.9572336 121.86206055 133.51977539 C117.27670451 127.33546017 112.56278745 121.25821116 107.80810547 115.20336914 C104.42133019 110.87757373 101.15980009 106.49459415 98 102 C96.98454234 105.04637299 96.8458023 107.19777098 96.79467773 110.3894043 C96.77449585 111.50569214 96.75431396 112.62197998 96.73352051 113.77209473 C96.71704468 114.94429565 96.70056885 116.11649658 96.68359375 117.32421875 C96.65561707 118.94148865 96.65561707 118.94148865 96.6270752 120.59143066 C96.55871806 124.62336951 96.49860732 128.65544476 96.4375 132.6875 C96.293125 141.700625 96.14875 150.71375 96 160 C77.19 160 58.38 160 39 160 C35.36023937 148.47409134 31.76955685 136.984479 28.4765625 125.36328125 C28.08180899 123.9778941 27.68681444 122.59257561 27.29159546 121.20732117 C26.27332012 117.63587575 25.25822468 114.06353493 24.24389648 110.4909668 C23.19975563 106.81567337 22.1524614 103.1412787 21.10546875 99.46679688 C19.06730579 92.31205112 17.03251684 85.15635201 15 78 C12.88677322 81.16984018 12.10602312 83.66112745 11.07641602 87.31640625 C10.895625 87.95266434 10.71483398 88.58892242 10.52856445 89.24446106 C9.93192596 91.34907338 9.3428848 93.45573241 8.75390625 95.5625 C8.33841704 97.03414408 7.9224706 98.50565915 7.50608826 99.97705078 C6.40926974 103.85786786 5.31893647 107.74047887 4.2298584 111.62347412 C3.13063877 115.53789836 2.02489549 119.45047825 0.91992188 123.36328125 C-0.70557925 129.12410488 -2.32923722 134.88544159 -3.94702148 140.6484375 C-4.29844208 141.89979492 -4.64986267 143.15115234 -5.01193237 144.44042969 C-6.17573608 148.6330993 -7.29808394 152.83608328 -8.40003967 157.04541016 C-9 159 -9 159 -10 160 C-13.10251201 160.08874135 -16.1826812 160.11518455 -19.28515625 160.09765625 C-20.21597519 160.0962413 -21.14679413 160.09482635 -22.1058197 160.09336853 C-25.09141191 160.08775172 -28.07693029 160.0751964 -31.0625 160.0625 C-33.08137913 160.05748716 -35.10025943 160.05292388 -37.11914062 160.04882812 C-42.07945572 160.03777683 -47.03971532 160.02050095 -52 160 C-57.44905488 142.31369818 -62.59584375 124.54711851 -67.60198975 106.73065186 C-68.24298162 104.44956472 -68.88527777 102.1688437 -69.52886963 99.88848877 C-70.44146124 96.65209292 -71.34857204 93.41421375 -72.25390625 90.17578125 C-72.53161362 89.1926445 -72.80932098 88.20950775 -73.09544373 87.19657898 C-73.47274376 85.83917351 -73.47274376 85.83917351 -73.85766602 84.4543457 C-74.07922867 83.66324905 -74.30079132 82.8721524 -74.52906799 82.05708313 C-75 80 -75 80 -75 77 C-74.05640625 76.91363281 -73.1128125 76.82726562 -72.140625 76.73828125 C-60.21530644 75.43320121 -50.66180897 72.35137639 -41 65 C-40.34 65 -39.68 65 -39 65 C-36.01228889 75.52691403 -33.17255551 86.07185567 -30.61254883 96.71191406 C-29.94984394 100.67511381 -29.94984394 100.67511381 -28 104 C-27.69345993 102.84456696 -27.38691986 101.68913391 -27.0710907 100.49868774 C-24.17462611 89.58197402 -21.2764603 78.66571317 -18.37665081 67.74988747 C-16.88607536 62.13865895 -15.39608875 56.52727549 -13.9074707 50.91552734 C-12.4694488 45.49460403 -11.02985029 40.07410163 -9.5891819 34.65388107 C-9.04125218 32.59130988 -8.49387988 30.52859051 -7.94708824 28.46571732 C-7.17805702 25.56479775 -6.40700156 22.66442304 -5.63549805 19.76416016 C-5.41251541 18.92114349 -5.18953278 18.07812683 -4.95979309 17.20956421 C-3.41922323 11.42966033 -1.72090153 5.73633842 0 0 Z M104.1875 39.1875 C98.30931132 45.62486672 95.60442159 52.89431073 95.71875 61.5546875 C96.36216717 67.14884232 98.57080982 71.63886649 102.625 75.5 C106.76569619 78.11517654 110.14044474 78.72722218 115 78 C121.77700381 75.40804892 125.82548444 70.35943938 129 64 C131.59853614 57.16237725 131.94563224 49.52164934 129.0234375 42.73046875 C126.40472694 38.17729135 123.62424043 35.46626156 119 33 C113.37780153 33 108.21587481 35.36839141 104.1875 39.1875 Z " fill="#1B1F42" transform="translate(97,14)"/>
<path d="M0 0 C3.79958654 3.25678846 5.0346471 6.44837296 5.5625 11.375 C5.14023992 15.31609405 4.42100591 17.59919133 2.1875 20.875 C-1.31751331 23.46203363 -4.05261979 24.11166001 -8.3125 23.875 C-13.11483748 23.14491491 -15.48956335 21.36408348 -18.8125 17.875 C-20.32399553 13.34051342 -20.58691645 9.49758684 -18.5 5.125 C-13.72012546 -1.24816605 -7.57378627 -3.02951451 0 0 Z " fill="#010101" transform="translate(262.8125,153.125)"/>
<path d="M0 0 C2.02720185 3.04080278 2.25330445 3.65968932 2.29193115 7.07881165 C2.30598495 7.90726593 2.32003876 8.73572021 2.33451843 9.58927917 C2.33982071 10.49479019 2.34512299 11.40030121 2.35058594 12.33325195 C2.36384415 13.28965576 2.37710236 14.24605957 2.39076233 15.23144531 C2.43192078 18.40036035 2.45860786 21.56920633 2.484375 24.73828125 C2.50816416 26.93923041 2.53252488 29.14017346 2.55743408 31.34111023 C2.60739439 35.95873322 2.650167 40.57635391 2.68798828 45.1940918 C2.73704179 51.10915237 2.8041579 57.02384373 2.87673569 62.93865681 C2.93047768 67.48622047 2.97442615 72.03383883 3.01544952 76.58153343 C3.03632957 78.76202722 3.06029041 80.94249378 3.08739471 83.12291908 C3.12389351 86.17480946 3.14715985 89.22652629 3.16699219 92.27856445 C3.18039139 93.17800278 3.19379059 94.0774411 3.20759583 95.00413513 C3.22333403 99.75147513 2.84595458 103.53714036 1 108 C0.01 107.67 -0.98 107.34 -2 107 C-2 105.35 -2 103.7 -2 102 C-1.67 102 -1.34 102 -1 102 C-0.67 68.34 -0.34 34.68 0 0 Z " fill="#050728" transform="translate(155,16)"/>
<path d="M0 0 C0.33 0 0.66 0 1 0 C1 17.16 1 34.32 1 52 C-17.81 52 -36.62 52 -56 52 C-62 33 -62 33 -61 29 C-60.30329584 30.78810766 -59.61788811 32.58062052 -58.9375 34.375 C-58.36322266 35.87160156 -58.36322266 35.87160156 -57.77734375 37.3984375 C-57 40 -57 40 -58 42 C-57.34 42 -56.68 42 -56 42 C-55.67 44.97 -55.34 47.94 -55 51 C-36.85 51 -18.7 51 0 51 C0 34.17 0 17.34 0 0 Z " fill="#12132C" transform="translate(192,122)"/>
<path d="M0 0 C0.33 0 0.66 0 1 0 C1.125 6.75 1.125 6.75 0 9 C0.66 9.33 1.32 9.66 2 10 C1.01 10.495 1.01 10.495 0 11 C-0.33 11.99 -0.66 12.98 -1 14 C-1.66 14 -2.32 14 -3 14 C-3.13535156 15.00160156 -3.27070312 16.00320312 -3.41015625 17.03515625 C-4.84597804 27.0707683 -6.79025615 37.37076844 -10 47 C-10.66 47 -11.32 47 -12 47 C-12.103125 48.0725 -12.20625 49.145 -12.3125 50.25 C-12.7945124 54.03142124 -13.5269394 57.72112974 -14.375 61.4375 C-14.60960938 62.46746094 -14.84421875 63.49742188 -15.0859375 64.55859375 C-15.38757813 65.36425781 -15.68921875 66.16992188 -16 67 C-17.485 67.495 -17.485 67.495 -19 68 C-20.43088528 65.13822943 -19.59991697 63.06624227 -19 60 C-18.34 60.33 -17.68 60.66 -17 61 C-16.80177139 60.25053604 -16.60354279 59.50107208 -16.39930725 58.72889709 C-14.53407612 51.67926592 -12.66558485 44.630511 -10.79338932 37.58272648 C-9.83090362 33.95903049 -8.86969941 30.33500451 -7.91137695 26.71020508 C-6.98716283 23.21460629 -6.05964397 19.71990009 -5.12978935 16.22579765 C-4.77493937 14.89001402 -4.42129822 13.55390868 -4.06886482 12.21748543 C-3.57649948 10.35126516 -3.07950416 8.48626826 -2.58227539 6.62133789 C-2.15924889 5.02582848 -2.15924889 5.02582848 -1.72767639 3.39808655 C-1 1 -1 1 0 0 Z " fill="#0C0F28" transform="translate(86,57)"/>
<path d="M0 0 C2.77834684 1.38917342 2.99642986 2.95763553 4.125 5.8125 C4.47820313 6.68519531 4.83140625 7.55789062 5.1953125 8.45703125 C6 11 6 11 6 15 C18.87 14.67 31.74 14.34 45 14 C45.99 10.7 46.98 7.4 48 4 C49 8 49 8 46 16 C32.14 16 18.28 16 4 16 C0 3 0 3 0 0 Z " fill="#0D0F2A" transform="translate(41,158)"/>
<path d="M0 0 C3.93612684 1.27658168 6.01681689 2.31694566 8 6 C9.70557265 11.29837657 10.25500254 15.52362526 9 21 C8.91555761 22.47910377 8.83231767 23.95827646 8.75 25.4375 C8.24777159 30.4597841 6.18373077 33.16319625 3 37 C2.34 36.67 1.68 36.34 1 36 C1.928125 34.5459375 1.928125 34.5459375 2.875 33.0625 C6.93563649 25.86606949 8.05335494 18.0455354 6 10 C4.58299039 7.12274997 2.8792856 4.59036663 1 2 C0.67 1.34 0.34 0.68 0 0 Z " fill="#0C0F27" transform="translate(220,49)"/>
<path d="M0 0 C0.66 0 1.32 0 2 0 C5.46000033 11.37606169 8.82277945 22.73896166 11.38671875 34.35546875 C11.9759873 37.08418753 11.9759873 37.08418753 13 40 C12.01 40.495 12.01 40.495 11 41 C9.4283118 35.64463204 7.86187024 30.28776832 6.30029297 24.92944336 C5.76820876 23.10643 5.23468764 21.28383541 4.69970703 19.46166992 C3.93144558 16.84402213 3.16834674 14.22491698 2.40625 11.60546875 C2.16563843 10.78974899 1.92502686 9.97402924 1.67712402 9.1335907 C0.77046331 6.00242293 0 3.27767201 0 0 Z " fill="#080B25" transform="translate(118,110)"/>
<path d="M0 0 C0.99 0.33 1.98 0.66 3 1 C3.87890625 3.1171875 3.87890625 3.1171875 4.5625 5.875 C4.81 6.86628906 5.0575 7.85757813 5.3125 8.87890625 C6.16691131 12.75773941 6.86339959 16.65245218 7.53515625 20.56640625 C8.09383836 23.49127139 8.98320755 26.20382076 10 29 C12.26131517 35.90296209 12.26131517 35.90296209 11 40 C9.72614506 35.89676515 8.45648161 31.79224436 7.1875 27.6875 C6.65286133 25.96563477 6.65286133 25.96563477 6.10742188 24.20898438 C0 4.42990252 0 4.42990252 0 0 Z " fill="#090D26" transform="translate(25,102)"/>
<path d="M0 0 C0.33 0 0.66 0 1 0 C0.30695874 6.97267121 -1.20101561 13.63949023 -2.875 20.4375 C-3.13152344 21.53771484 -3.38804688 22.63792969 -3.65234375 23.77148438 C-4.03712891 25.33672852 -4.03712891 25.33672852 -4.4296875 26.93359375 C-4.65897949 27.88290771 -4.88827148 28.83222168 -5.12451172 29.81030273 C-5.41342285 30.53290283 -5.70233398 31.25550293 -6 32 C-7.485 32.495 -7.485 32.495 -9 33 C-10.43088528 30.13822943 -9.59991697 28.06624227 -9 25 C-8.34 25.33 -7.68 25.66 -7 26 C-4.69 17.42 -2.38 8.84 0 0 Z " fill="#050821" transform="translate(76,92)"/>
<path d="M0 0 C3.84853751 1.41721921 5.90850502 2.36740346 8 6 C8 6.99 8 7.98 8 9 C8.99 9 9.98 9 11 9 C11.33 7.02 11.66 5.04 12 3 C12.99 3 13.98 3 15 3 C13.68 6.3 12.36 9.6 11 13 C5.94336573 9.57933564 3.16492103 5.08997609 0 0 Z " fill="#0F112A" transform="translate(224,153)"/>
<path d="M0 0 C0.66 0.33 1.32 0.66 2 1 C-2.85359495 5.01676824 -8.04972335 4.28136159 -14 4 C-14 6.97 -14 9.94 -14 13 C-14.66 13 -15.32 13 -16 13 C-16.66 9.7 -17.32 6.4 -18 3 C-16.95199219 2.86722656 -15.90398438 2.73445313 -14.82421875 2.59765625 C-13.44529222 2.41942765 -12.06638707 2.24103359 -10.6875 2.0625 C-9.65206055 1.93198242 -9.65206055 1.93198242 -8.59570312 1.79882812 C-5.59857712 1.40789865 -2.87549881 0.9584996 0 0 Z " fill="#14162E" transform="translate(40,88)"/>
<path d="M0 0 C2.18993607 2.18993607 2.72197989 3.5987298 3.6875 6.5 C3.95949219 7.2940625 4.23148438 8.088125 4.51171875 8.90625 C5 11 5 11 4 13 C4.66 13 5.32 13 6 13 C6.33 15.97 6.66 18.94 7 22 C9.31 22 11.62 22 14 22 C14 22.33 14 22.66 14 23 C11.36 23 8.72 23 6 23 C4.9905304 19.91968584 3.99410379 16.8353041 3 13.75 C2.71382812 12.87730469 2.42765625 12.00460938 2.1328125 11.10546875 C1.72675781 9.83896484 1.72675781 9.83896484 1.3125 8.546875 C1.06113281 7.77182617 0.80976563 6.99677734 0.55078125 6.19824219 C0 4 0 4 0 0 Z " fill="#0B0E23" transform="translate(130,151)"/>
<path d="M0 0 C0.66 0 1.32 0 2 0 C2.309375 1.134375 2.61875 2.26875 2.9375 3.4375 C3.62924531 6.78775099 3.62924531 6.78775099 5 8 C5.37319457 9.57441461 5.69897427 11.16020785 6 12.75 C6.165 13.61109375 6.33 14.4721875 6.5 15.359375 C6.665 16.23078125 6.83 17.1021875 7 18 C7.33156198 19.66701996 7.66436178 21.33379597 8 23 C7.34 23 6.68 23 6 23 C4.99572108 19.54289448 3.9973056 16.08412303 3 12.625 C2.71382813 11.64015625 2.42765625 10.6553125 2.1328125 9.640625 C1.86210938 8.69960937 1.59140625 7.75859375 1.3125 6.7890625 C1.06113281 5.91975098 0.80976562 5.05043945 0.55078125 4.15478516 C0 2 0 2 0 0 Z " fill="#070B24" transform="translate(111,86)"/>
<path d="M0 0 C0.66 0.33 1.32 0.66 2 1 C1.814375 1.78375 1.62875 2.5675 1.4375 3.375 C0.74037734 5.97089775 0.74037734 5.97089775 2 8 C1.34 8 0.68 8 0 8 C-0.185625 9.299375 -0.185625 9.299375 -0.375 10.625 C-0.98058121 13.89513853 -1.88306035 16.87256899 -3 20 C-3.66 20 -4.32 20 -5 20 C-4.35587386 17.22875964 -3.70977252 14.45800555 -3.0625 11.6875 C-2.88009766 10.90181641 -2.69769531 10.11613281 -2.50976562 9.30664062 C-2.33251953 8.54931641 -2.15527344 7.79199219 -1.97265625 7.01171875 C-1.81031494 6.31522217 -1.64797363 5.61872559 -1.48071289 4.90112305 C-1.06234435 3.2465594 -0.53968631 1.61905892 0 0 Z " fill="#10132C" transform="translate(97,14)"/>
<path d="M0 0 C0.99 0.639375 1.98 1.27875 3 1.9375 C7.00282486 4.25406326 10.41921002 4.67854105 15 5 C14.67 5.66 14.34 6.32 14 7 C13.05125 6.979375 12.1025 6.95875 11.125 6.9375 C8.09333717 6.77448174 8.09333717 6.77448174 6 8 C5.67 7.34 5.34 6.68 5 6 C3.7625 5.505 3.7625 5.505 2.5 5 C0 4 0 4 -1 2 C-0.67 1.34 -0.34 0.68 0 0 Z " fill="#181B33" transform="translate(197,87)"/>
<path d="M0 0 C0.53341184 1.57914015 1.05125763 3.16354387 1.5625 4.75 C1.85253906 5.63171875 2.14257812 6.5134375 2.44140625 7.421875 C3.01697435 10.07834316 2.89248371 11.47031106 2 14 C1.87625 13.030625 1.7525 12.06125 1.625 11.0625 C1.315625 9.5465625 1.315625 9.5465625 1 8 C0.34 7.67 -0.32 7.34 -1 7 C-1.33 6.01 -1.66 5.02 -2 4 C-2.99 4.495 -2.99 4.495 -4 5 C-4.66 4.34 -5.32 3.68 -6 3 C-2.25 0 -2.25 0 0 0 Z " fill="#101229" transform="translate(58,79)"/>
<path d="M0 0 C0.66 1.32 1.32 2.64 2 4 C1.01 4.495 1.01 4.495 0 5 C-0.33 5.66 -0.66 6.32 -1 7 C-5 7 -5 7 -8 6 C-5.33333333 4 -2.66666667 2 0 0 Z " fill="#171A36" transform="translate(220,86)"/>
<path d="M0 0 C0.33 0 0.66 0 1 0 C1.125 6.75 1.125 6.75 0 9 C0.66 9.33 1.32 9.66 2 10 C1.01 10.495 1.01 10.495 0 11 C-0.66 11.99 -1.32 12.98 -2 14 C-2.3690205 4.58997722 -2.3690205 4.58997722 0 0 Z " fill="#121533" transform="translate(86,57)"/>
<path d="M0 0 C0.99 0.33 1.98 0.66 3 1 C3.94921875 3.50390625 3.94921875 3.50390625 4.6875 6.5625 C4.93886719 7.57441406 5.19023437 8.58632812 5.44921875 9.62890625 C5.63097656 10.41136719 5.81273437 11.19382812 6 12 C5.34 12 4.68 12 4 12 C3.67 10.02 3.34 8.04 3 6 C2.34 6 1.68 6 1 6 C0.67 4.02 0.34 2.04 0 0 Z " fill="#111530" transform="translate(25,102)"/>
<path d="M0 0 C3.68851835 0.99689685 4.80574807 1.68919691 6.875 5 C7.24625 5.99 7.6175 6.98 8 8 C7.67 8.66 7.34 9.32 7 10 C5.83043409 8.52312468 4.66441854 7.04343707 3.5 5.5625 C2.8503125 4.73878906 2.200625 3.91507813 1.53125 3.06640625 C0 1 0 1 0 0 Z " fill="#0E102E" transform="translate(210,135)"/>
<path d="M0 0 C0.33 0.99 0.66 1.98 1 3 C0.00390625 4.82421875 0.00390625 4.82421875 -1.4375 6.6875 C-1.91058594 7.31011719 -2.38367188 7.93273437 -2.87109375 8.57421875 C-3.24363281 9.04472656 -3.61617187 9.51523438 -4 10 C-4.66 9.67 -5.32 9.34 -6 9 C-4.02 6.03 -2.04 3.06 0 0 Z " fill="#0F132E" transform="translate(227,76)"/>
<path d="M0 0 C2.4375 0.625 2.4375 0.625 5 2 C5.8125 5.125 5.8125 5.125 6 8 C1.125 3.375 1.125 3.375 0 0 Z " fill="#0F1229" transform="translate(218,145)"/>
<path d="M0 0 C1.57432497 3.14864995 0.71895552 5.64487425 0 9 C-0.99 9.66 -1.98 10.32 -3 11 C-2.69217504 9.35328588 -2.37860766 7.70764424 -2.0625 6.0625 C-1.88847656 5.14597656 -1.71445313 4.22945312 -1.53515625 3.28515625 C-1 1 -1 1 0 0 Z " fill="#0F1128" transform="translate(92,35)"/>
<path d="M0 0 C1.45922693 0.11409593 2.91740598 0.24165544 4.375 0.375 C5.59316406 0.47941406 5.59316406 0.47941406 6.8359375 0.5859375 C9 1 9 1 11 3 C9 4 9 4 6.8359375 3.44140625 C6.02382812 3.15136719 5.21171875 2.86132812 4.375 2.5625 C3.55773437 2.27503906 2.74046875 1.98757812 1.8984375 1.69140625 C1.27195313 1.46324219 0.64546875 1.23507813 0 1 C0 0.67 0 0.34 0 0 Z " fill="#252741" transform="translate(229,17)"/>
</svg>
